<svg width="216" height="333" viewBox="0 0 216 333" fill="none" xmlns="http://www.w3.org/2000/svg">
<path d="M142.128 0C142.128 0 177.606 80.6931 148.589 159.343C129.571 210.875 90.0682 220.874 60.3365 221.298C-5.4549 222.228 0.116896 280 0.116896 280C0.116896 280 -6.51342 193.342 81.0766 125.57C168.667 57.7977 142.128 0 142.128 0Z" fill="#33301F"/>
<path d="M170.128 25C170.128 25 205.606 105.693 176.589 184.343C157.571 235.875 118.068 245.874 88.3365 246.298C22.5451 247.228 28.1169 305 28.1169 305C28.1169 305 21.4866 218.342 109.077 150.57C196.667 82.7977 170.128 25 170.128 25Z" fill="#7D8054"/>
<path d="M198.128 53C198.128 53 233.606 133.693 204.589 212.343C185.571 263.875 146.068 273.874 116.336 274.298C50.5451 275.228 56.1169 333 56.1169 333C56.1169 333 49.4866 246.342 137.077 178.57C224.667 110.798 198.128 53 198.128 53Z" fill="#C6E1E7"/>
</svg>
