<svg width="238" height="401" viewBox="0 0 238 401" fill="none" xmlns="http://www.w3.org/2000/svg">
<path d="M153.128 0C153.128 0 188.606 80.6931 159.589 159.343C140.571 210.875 101.068 220.874 71.3365 221.298C5.5451 222.228 11.1169 280 11.1169 280C11.1169 280 4.48658 193.342 92.0766 125.57C179.667 57.7977 153.128 0 153.128 0Z" fill="#33301F"/>
<path d="M181.128 25C181.128 25 216.606 105.693 187.589 184.343C168.571 235.875 129.068 245.874 99.3365 246.298C33.5451 247.228 39.1169 305 39.1169 305C39.1169 305 32.4866 218.342 120.077 150.57C207.667 82.7977 181.128 25 181.128 25Z" fill="#7D8054"/>
<path d="M209.128 53C209.128 53 244.606 133.693 215.589 212.343C196.571 263.875 157.068 273.874 127.336 274.298C61.5451 275.228 67.1169 333 67.1169 333C67.1169 333 60.4866 246.342 148.077 178.57C235.667 110.798 209.128 53 209.128 53Z" fill="#C6E1E7"/>
<path d="M57.0925 354.008C57.7752 354.008 58.3938 354.243 58.9485 354.712C59.5458 355.181 59.8445 355.843 59.8445 356.696C59.8445 356.995 59.8018 357.315 59.7165 357.656L46.0845 397.336C45.9138 397.848 45.5938 398.253 45.1245 398.552C44.6978 398.808 44.2498 398.957 43.7805 399C43.2685 399 42.7778 398.872 42.3085 398.616C41.8392 398.317 41.4765 397.891 41.2205 397.336L30.5325 371.48L31.0445 371.672L20.4205 397.336C20.1645 397.891 19.8018 398.317 19.3325 398.616C18.8632 398.872 18.3725 399 17.8605 399C17.3912 398.957 16.9218 398.808 16.4525 398.552C16.0258 398.253 15.7272 397.848 15.5565 397.336L1.9245 357.656C1.83917 357.315 1.7965 357.016 1.7965 356.76C1.7965 355.907 2.09517 355.245 2.6925 354.776C3.3325 354.264 3.9725 354.008 4.6125 354.008C5.1245 354.008 5.61517 354.157 6.0845 354.456C6.55383 354.755 6.87383 355.16 7.0445 355.672L19.0125 391H18.1165L28.5485 365.208C28.7618 364.696 29.0818 364.291 29.5085 363.992C29.9352 363.693 30.4258 363.544 30.9805 363.544C31.4925 363.544 31.9618 363.693 32.3885 363.992C32.8578 364.291 33.1778 364.696 33.3485 365.208L43.4605 390.616L42.6925 390.936L54.5965 355.672C54.7672 355.16 55.0872 354.755 55.5565 354.456C56.0258 354.157 56.5378 354.008 57.0925 354.008ZM86.0835 365.4C88.8995 365.4 91.1182 366.019 92.7395 367.256C94.4035 368.451 95.5768 370.072 96.2595 372.12C96.9848 374.125 97.3475 376.365 97.3475 378.84V396.376C97.3475 397.101 97.0915 397.72 96.5795 398.232C96.1102 398.744 95.5128 399 94.7875 399C94.0622 399 93.4435 398.744 92.9315 398.232C92.4622 397.72 92.2275 397.101 92.2275 396.376V378.84C92.2275 377.219 91.9928 375.768 91.5235 374.488C91.0542 373.165 90.2648 372.12 89.1555 371.352C88.0888 370.541 86.6168 370.136 84.7395 370.136C82.9902 370.136 81.3902 370.541 79.9395 371.352C78.4888 372.12 77.3368 373.165 76.4835 374.488C75.6302 375.768 75.2035 377.219 75.2035 378.84V396.376C75.2035 397.101 74.9475 397.72 74.4355 398.232C73.9662 398.744 73.3688 399 72.6435 399C71.9182 399 71.2995 398.744 70.7875 398.232C70.3182 397.72 70.0835 397.101 70.0835 396.376V354.2C70.0835 353.475 70.3182 352.877 70.7875 352.408C71.2995 351.896 71.9182 351.64 72.6435 351.64C73.4115 351.64 74.0302 351.896 74.4995 352.408C74.9688 352.877 75.2035 353.475 75.2035 354.2V373.336L73.9235 374.744C74.1368 373.635 74.6062 372.525 75.3315 371.416C76.0568 370.264 76.9742 369.24 78.0835 368.344C79.1928 367.448 80.4302 366.744 81.7955 366.232C83.1608 365.677 84.5902 365.4 86.0835 365.4ZM142.097 382.36C142.097 385.688 141.351 388.653 139.858 391.256C138.407 393.859 136.423 395.907 133.906 397.4C131.431 398.893 128.636 399.64 125.522 399.64C122.407 399.64 119.591 398.893 117.074 397.4C114.556 395.907 112.551 393.859 111.058 391.256C109.607 388.653 108.882 385.688 108.882 382.36C108.882 379.032 109.607 376.067 111.058 373.464C112.551 370.861 114.556 368.813 117.074 367.32C119.591 365.827 122.407 365.08 125.522 365.08C128.636 365.08 131.431 365.827 133.906 367.32C136.423 368.813 138.407 370.861 139.858 373.464C141.351 376.067 142.097 379.032 142.097 382.36ZM136.978 382.36C136.978 379.885 136.466 377.709 135.442 375.832C134.46 373.955 133.095 372.483 131.346 371.416C129.639 370.349 127.698 369.816 125.522 369.816C123.346 369.816 121.383 370.349 119.634 371.416C117.927 372.483 116.562 373.955 115.538 375.832C114.514 377.709 114.002 379.885 114.002 382.36C114.002 384.792 114.514 386.947 115.538 388.824C116.562 390.701 117.927 392.195 119.634 393.304C121.383 394.371 123.346 394.904 125.522 394.904C127.698 394.904 129.639 394.371 131.346 393.304C133.095 392.195 134.46 390.701 135.442 388.824C136.466 386.947 136.978 384.792 136.978 382.36ZM192.678 365.336C193.361 365.336 193.937 365.571 194.406 366.04C194.918 366.509 195.174 367.128 195.174 367.896C195.174 368.067 195.153 368.259 195.111 368.472C195.111 368.643 195.068 368.813 194.982 368.984L185.126 397.336C184.913 397.891 184.55 398.317 184.038 398.616C183.569 398.915 183.057 399.043 182.502 399C181.521 398.957 180.774 398.403 180.262 397.336L172.198 377.112L173.478 377.304L166.182 397.336C165.713 398.403 164.966 398.957 163.942 399C163.388 399.043 162.854 398.915 162.342 398.616C161.83 398.317 161.489 397.891 161.318 397.336L151.27 368.984C151.142 368.6 151.078 368.237 151.078 367.896C151.078 367.213 151.313 366.616 151.782 366.104C152.252 365.592 152.892 365.336 153.702 365.336C154.214 365.336 154.684 365.464 155.11 365.72C155.537 365.976 155.836 366.381 156.006 366.936L164.646 392.152L163.302 392.088L170.79 372.888C171.217 371.821 172.006 371.288 173.158 371.288C173.756 371.288 174.225 371.437 174.566 371.736C174.95 371.992 175.228 372.376 175.398 372.888L183.206 392.088L181.606 392.216L190.246 366.936C190.63 365.869 191.441 365.336 192.678 365.336ZM221.212 399.64C217.799 399.64 214.812 398.915 212.252 397.464C209.692 396.013 207.687 394.029 206.236 391.512C204.828 388.952 204.124 386.008 204.124 382.68C204.124 378.968 204.849 375.811 206.3 373.208C207.793 370.563 209.713 368.557 212.06 367.192C214.449 365.784 216.967 365.08 219.612 365.08C221.575 365.08 223.473 365.443 225.308 366.168C227.143 366.893 228.764 367.96 230.172 369.368C231.58 370.733 232.711 372.397 233.564 374.36C234.417 376.28 234.865 378.435 234.908 380.824C234.908 381.507 234.652 382.083 234.14 382.552C233.628 383.021 233.031 383.256 232.348 383.256H207.068L205.916 378.84H230.556L229.532 379.736V378.328C229.361 376.579 228.764 375.085 227.74 373.848C226.759 372.568 225.543 371.587 224.092 370.904C222.684 370.221 221.191 369.88 219.612 369.88C218.332 369.88 217.052 370.115 215.772 370.584C214.535 371.011 213.404 371.736 212.38 372.76C211.399 373.741 210.588 375.021 209.948 376.6C209.351 378.179 209.052 380.077 209.052 382.296C209.052 384.771 209.543 386.947 210.524 388.824C211.548 390.701 212.956 392.195 214.748 393.304C216.54 394.371 218.631 394.904 221.02 394.904C222.513 394.904 223.815 394.712 224.924 394.328C226.033 393.944 226.993 393.475 227.804 392.92C228.615 392.323 229.297 391.725 229.852 391.128C230.407 390.744 230.94 390.552 231.452 390.552C232.092 390.552 232.604 390.765 232.988 391.192C233.415 391.619 233.628 392.131 233.628 392.728C233.628 393.453 233.287 394.093 232.604 394.648C231.409 395.971 229.788 397.144 227.74 398.168C225.692 399.149 223.516 399.64 221.212 399.64Z" fill="#33301F"/>
</svg>
